# xmcd
#
# Track frame offsets:
#	150
#	7697
#	27472
#	43635
#	61350
#	78287
#	91867
#	102630
#	114482
#	142717
#
# Disc length: 2285 seconds
#
# Revision: 1
# Processed by: cddbd v1.5PL3 Copyright (c) Steve Scherf et al.
# Submitted via: CDex 1.50Beta5
#
DISCID=7008eb0a
DTITLE=NOVELA - 最終戦争伝説
DYEAR=1994
DGENRE=
TTITLE0=風の黙示録
TTITLE1=出発
TTITLE2=悠久の生命
TTITLE3=久遠の草星
TTITLE4=遥かな時の彼方に
TTITLE5=浮遊都市西の22
TTITLE6=放浪
TTITLE7=ソマの戦士
TTITLE8=警告そして最終戦争
TTITLE9=無限伝説
EXTD=
EXTT0=
EXTT1=
EXTT2=
EXTT3=
EXTT4=
EXTT5=
EXTT6=
EXTT7=
EXTT8=
EXTT9=
PLAYORDER=
